<mxfile host="app.diagrams.net" agent="Mozilla/5.0 (Windows NT 10.0; Win64; x64) AppleWebKit/537.36 (KHTML, like Gecko) Chrome/137.0.0.0 Safari/537.36" version="27.2.0">
  <diagram name="Page-1" id="phGxgDRw-nOjoQc4o8pd">
    <mxGraphModel dx="1872" dy="813" grid="0" gridSize="10" guides="1" tooltips="1" connect="1" arrows="1" fold="1" page="0" pageScale="1" pageWidth="827" pageHeight="1169" background="#ffffff" math="0" shadow="1">
      <root>
        <mxCell id="0" />
        <mxCell id="1" parent="0" />
        <mxCell id="-WUFhk_O9oC03OGAPnyk-29" style="edgeStyle=orthogonalEdgeStyle;rounded=0;orthogonalLoop=1;jettySize=auto;html=1;entryX=1;entryY=0.5;entryDx=0;entryDy=0;" edge="1" parent="1" source="P_sAf52qYaWuxVpr26zw-6" target="P_sAf52qYaWuxVpr26zw-12">
          <mxGeometry relative="1" as="geometry" />
        </mxCell>
        <mxCell id="P_sAf52qYaWuxVpr26zw-6" value="Redirect to the google login process" style="rounded=0;whiteSpace=wrap;html=1;fillColor=#e1d5e7;strokeColor=#9673a6;" parent="1" vertex="1">
          <mxGeometry x="260" y="725" width="120" height="60" as="geometry" />
        </mxCell>
        <mxCell id="-WUFhk_O9oC03OGAPnyk-5" style="edgeStyle=orthogonalEdgeStyle;rounded=0;orthogonalLoop=1;jettySize=auto;html=1;entryX=0.5;entryY=0;entryDx=0;entryDy=0;" edge="1" parent="1" source="P_sAf52qYaWuxVpr26zw-10" target="P_sAf52qYaWuxVpr26zw-25">
          <mxGeometry relative="1" as="geometry" />
        </mxCell>
        <mxCell id="P_sAf52qYaWuxVpr26zw-10" value="Call RestAPI&lt;div&gt;../api/sample&lt;/div&gt;" style="rounded=0;whiteSpace=wrap;html=1;fillColor=#dae8fc;strokeColor=#6c8ebf;" parent="1" vertex="1">
          <mxGeometry x="130" y="408" width="120" height="60" as="geometry" />
        </mxCell>
        <mxCell id="-WUFhk_O9oC03OGAPnyk-35" value="" style="edgeStyle=orthogonalEdgeStyle;rounded=0;orthogonalLoop=1;jettySize=auto;html=1;" edge="1" parent="1" source="P_sAf52qYaWuxVpr26zw-12" target="-WUFhk_O9oC03OGAPnyk-34">
          <mxGeometry relative="1" as="geometry" />
        </mxCell>
        <mxCell id="-WUFhk_O9oC03OGAPnyk-36" value="Success" style="edgeLabel;html=1;align=center;verticalAlign=middle;resizable=0;points=[];" vertex="1" connectable="0" parent="-WUFhk_O9oC03OGAPnyk-35">
          <mxGeometry x="-0.3045" y="-1" relative="1" as="geometry">
            <mxPoint as="offset" />
          </mxGeometry>
        </mxCell>
        <mxCell id="P_sAf52qYaWuxVpr26zw-12" value="Google&amp;nbsp;&lt;div&gt;authentication&lt;/div&gt;" style="rhombus;whiteSpace=wrap;html=1;fillColor=#fff2cc;strokeColor=#d6b656;" parent="1" vertex="1">
          <mxGeometry x="60" y="715" width="150" height="80" as="geometry" />
        </mxCell>
        <mxCell id="-WUFhk_O9oC03OGAPnyk-7" style="edgeStyle=orthogonalEdgeStyle;rounded=0;orthogonalLoop=1;jettySize=auto;html=1;entryX=0;entryY=0.5;entryDx=0;entryDy=0;" edge="1" parent="1" source="P_sAf52qYaWuxVpr26zw-25" target="-WUFhk_O9oC03OGAPnyk-6">
          <mxGeometry relative="1" as="geometry" />
        </mxCell>
        <mxCell id="-WUFhk_O9oC03OGAPnyk-9" value="&lt;span style=&quot;color: rgba(0, 0, 0, 0); font-family: monospace; font-size: 0px; text-align: start; background-color: rgb(236, 236, 236);&quot;&gt;%3CmxGraphModel%3E%3Croot%3E%3CmxCell%20id%3D%220%22%2F%3E%3CmxCell%20id%3D%221%22%20parent%3D%220%22%2F%3E%3CmxCell%20id%3D%222%22%20value%3D%22No%20key%20found%20%7C%20Expired%22%20style%3D%22edgeLabel%3Bhtml%3D1%3Balign%3Dcenter%3BverticalAlign%3Dmiddle%3Bresizable%3D0%3Bpoints%3D%5B%5D%3B%22%20vertex%3D%221%22%20connectable%3D%220%22%20parent%3D%221%22%3E%3CmxGeometry%20x%3D%22310%22%20y%3D%22542%22%20as%3D%22geometry%22%2F%3E%3C%2FmxCell%3E%3C%2Froot%3E%3C%2FmxGraphModel%3E&lt;/span&gt;" style="edgeLabel;html=1;align=center;verticalAlign=middle;resizable=0;points=[];" vertex="1" connectable="0" parent="-WUFhk_O9oC03OGAPnyk-7">
          <mxGeometry x="-0.1012" relative="1" as="geometry">
            <mxPoint as="offset" />
          </mxGeometry>
        </mxCell>
        <mxCell id="-WUFhk_O9oC03OGAPnyk-10" value="&lt;span style=&quot;color: rgba(0, 0, 0, 0); font-family: monospace; font-size: 0px; text-align: start; background-color: rgb(236, 236, 236);&quot;&gt;%3CmxGraphModel%3E%3Croot%3E%3CmxCell%20id%3D%220%22%2F%3E%3CmxCell%20id%3D%221%22%20parent%3D%220%22%2F%3E%3CmxCell%20id%3D%222%22%20value%3D%22No%20key%20found%20%7C%20Expired%22%20style%3D%22edgeLabel%3Bhtml%3D1%3Balign%3Dcenter%3BverticalAlign%3Dmiddle%3Bresizable%3D0%3Bpoints%3D%5B%5D%3B%22%20vertex%3D%221%22%20connectable%3D%220%22%20parent%3D%221%22%3E%3CmxGeometry%20x%3D%22310%22%20y%3D%22542%22%20as%3D%22geometry%22%2F%3E%3C%2FmxCell%3E%3C%2Froot%3E%3C%2FmxGraphModel%3E&lt;/span&gt;" style="edgeLabel;html=1;align=center;verticalAlign=middle;resizable=0;points=[];" vertex="1" connectable="0" parent="-WUFhk_O9oC03OGAPnyk-7">
          <mxGeometry x="0.0538" relative="1" as="geometry">
            <mxPoint as="offset" />
          </mxGeometry>
        </mxCell>
        <mxCell id="-WUFhk_O9oC03OGAPnyk-11" value="No key found | Expired" style="edgeLabel;html=1;align=center;verticalAlign=middle;resizable=0;points=[];" vertex="1" connectable="0" parent="-WUFhk_O9oC03OGAPnyk-7">
          <mxGeometry x="0.0819" relative="1" as="geometry">
            <mxPoint as="offset" />
          </mxGeometry>
        </mxCell>
        <mxCell id="-WUFhk_O9oC03OGAPnyk-45" value="" style="edgeStyle=orthogonalEdgeStyle;rounded=0;orthogonalLoop=1;jettySize=auto;html=1;" edge="1" parent="1" source="P_sAf52qYaWuxVpr26zw-25" target="-WUFhk_O9oC03OGAPnyk-44">
          <mxGeometry relative="1" as="geometry" />
        </mxCell>
        <mxCell id="-WUFhk_O9oC03OGAPnyk-46" value="Valid" style="edgeLabel;html=1;align=center;verticalAlign=middle;resizable=0;points=[];" vertex="1" connectable="0" parent="-WUFhk_O9oC03OGAPnyk-45">
          <mxGeometry x="0.0492" y="-1" relative="1" as="geometry">
            <mxPoint as="offset" />
          </mxGeometry>
        </mxCell>
        <mxCell id="P_sAf52qYaWuxVpr26zw-25" value="validate&lt;div&gt;access token&lt;/div&gt;&lt;div&gt;from backend&lt;/div&gt;" style="rhombus;whiteSpace=wrap;html=1;fillColor=#fff2cc;strokeColor=#d6b656;" parent="1" vertex="1">
          <mxGeometry x="118" y="500" width="145" height="90" as="geometry" />
        </mxCell>
        <mxCell id="-WUFhk_O9oC03OGAPnyk-1" value="" style="edgeStyle=orthogonalEdgeStyle;rounded=0;orthogonalLoop=1;jettySize=auto;html=1;" edge="1" parent="1" source="P_sAf52qYaWuxVpr26zw-105" target="P_sAf52qYaWuxVpr26zw-10">
          <mxGeometry relative="1" as="geometry" />
        </mxCell>
        <mxCell id="P_sAf52qYaWuxVpr26zw-105" value="Start" style="ellipse;whiteSpace=wrap;html=1;fillColor=#d5e8d4;strokeColor=#82b366;" parent="1" vertex="1">
          <mxGeometry x="157.5" y="318" width="65" height="50" as="geometry" />
        </mxCell>
        <mxCell id="P_sAf52qYaWuxVpr26zw-107" value="End" style="ellipse;whiteSpace=wrap;html=1;aspect=fixed;fillColor=#d5e8d4;strokeColor=#82b366;" parent="1" vertex="1">
          <mxGeometry x="-140" y="520" width="50" height="50" as="geometry" />
        </mxCell>
        <mxCell id="-WUFhk_O9oC03OGAPnyk-13" style="edgeStyle=orthogonalEdgeStyle;rounded=0;orthogonalLoop=1;jettySize=auto;html=1;entryX=0.5;entryY=0;entryDx=0;entryDy=0;" edge="1" parent="1" source="-WUFhk_O9oC03OGAPnyk-6" target="-WUFhk_O9oC03OGAPnyk-12">
          <mxGeometry relative="1" as="geometry" />
        </mxCell>
        <mxCell id="-WUFhk_O9oC03OGAPnyk-6" value="Return with Unauthorized : access token required response" style="rounded=0;whiteSpace=wrap;html=1;" vertex="1" parent="1">
          <mxGeometry x="430" y="515" width="210" height="60" as="geometry" />
        </mxCell>
        <mxCell id="-WUFhk_O9oC03OGAPnyk-15" value="" style="edgeStyle=orthogonalEdgeStyle;rounded=0;orthogonalLoop=1;jettySize=auto;html=1;" edge="1" parent="1" source="-WUFhk_O9oC03OGAPnyk-12" target="-WUFhk_O9oC03OGAPnyk-14">
          <mxGeometry relative="1" as="geometry" />
        </mxCell>
        <mxCell id="-WUFhk_O9oC03OGAPnyk-12" value="Call RestAPI&lt;div&gt;../access-token/refresh&lt;/div&gt;" style="rounded=0;whiteSpace=wrap;html=1;fillColor=#dae8fc;strokeColor=#6c8ebf;" vertex="1" parent="1">
          <mxGeometry x="455" y="620" width="160" height="60" as="geometry" />
        </mxCell>
        <mxCell id="-WUFhk_O9oC03OGAPnyk-18" style="edgeStyle=orthogonalEdgeStyle;rounded=0;orthogonalLoop=1;jettySize=auto;html=1;entryX=0;entryY=0.5;entryDx=0;entryDy=0;" edge="1" parent="1" source="-WUFhk_O9oC03OGAPnyk-14" target="-WUFhk_O9oC03OGAPnyk-17">
          <mxGeometry relative="1" as="geometry" />
        </mxCell>
        <mxCell id="-WUFhk_O9oC03OGAPnyk-20" value="Valid" style="edgeLabel;html=1;align=center;verticalAlign=middle;resizable=0;points=[];" vertex="1" connectable="0" parent="-WUFhk_O9oC03OGAPnyk-18">
          <mxGeometry x="0.0407" y="3" relative="1" as="geometry">
            <mxPoint as="offset" />
          </mxGeometry>
        </mxCell>
        <mxCell id="-WUFhk_O9oC03OGAPnyk-23" value="" style="edgeStyle=orthogonalEdgeStyle;rounded=0;orthogonalLoop=1;jettySize=auto;html=1;strokeColor=#FF66FF;" edge="1" parent="1" source="-WUFhk_O9oC03OGAPnyk-14" target="-WUFhk_O9oC03OGAPnyk-21">
          <mxGeometry relative="1" as="geometry" />
        </mxCell>
        <mxCell id="-WUFhk_O9oC03OGAPnyk-24" value="Invalid" style="edgeLabel;html=1;align=center;verticalAlign=middle;resizable=0;points=[];" vertex="1" connectable="0" parent="-WUFhk_O9oC03OGAPnyk-23">
          <mxGeometry x="-0.4577" relative="1" as="geometry">
            <mxPoint as="offset" />
          </mxGeometry>
        </mxCell>
        <mxCell id="-WUFhk_O9oC03OGAPnyk-30" value="" style="edgeStyle=orthogonalEdgeStyle;rounded=0;orthogonalLoop=1;jettySize=auto;html=1;" edge="1" parent="1" source="-WUFhk_O9oC03OGAPnyk-14" target="P_sAf52qYaWuxVpr26zw-6">
          <mxGeometry relative="1" as="geometry" />
        </mxCell>
        <mxCell id="-WUFhk_O9oC03OGAPnyk-31" value="Expired" style="edgeLabel;html=1;align=center;verticalAlign=middle;resizable=0;points=[];" vertex="1" connectable="0" parent="-WUFhk_O9oC03OGAPnyk-30">
          <mxGeometry x="-0.2804" y="-2" relative="1" as="geometry">
            <mxPoint as="offset" />
          </mxGeometry>
        </mxCell>
        <mxCell id="-WUFhk_O9oC03OGAPnyk-14" value="validate&lt;div&gt;refresh token&lt;/div&gt;&lt;div&gt;from backend&lt;/div&gt;" style="rhombus;whiteSpace=wrap;html=1;fillColor=#fff2cc;strokeColor=#d6b656;" vertex="1" parent="1">
          <mxGeometry x="462.5" y="710" width="145" height="90" as="geometry" />
        </mxCell>
        <mxCell id="-WUFhk_O9oC03OGAPnyk-19" style="edgeStyle=orthogonalEdgeStyle;rounded=0;orthogonalLoop=1;jettySize=auto;html=1;entryX=1;entryY=0.5;entryDx=0;entryDy=0;" edge="1" parent="1" source="-WUFhk_O9oC03OGAPnyk-17" target="-WUFhk_O9oC03OGAPnyk-48">
          <mxGeometry relative="1" as="geometry">
            <Array as="points">
              <mxPoint x="720" y="438" />
            </Array>
          </mxGeometry>
        </mxCell>
        <mxCell id="-WUFhk_O9oC03OGAPnyk-17" value="create new access token and return" style="rounded=0;whiteSpace=wrap;html=1;" vertex="1" parent="1">
          <mxGeometry x="660" y="725" width="120" height="60" as="geometry" />
        </mxCell>
        <mxCell id="-WUFhk_O9oC03OGAPnyk-21" value="Return to frontend and continue invalid user handling process" style="rounded=0;whiteSpace=wrap;html=1;fillColor=#dae8fc;strokeColor=#6c8ebf;" vertex="1" parent="1">
          <mxGeometry x="400" y="860" width="270" height="60" as="geometry" />
        </mxCell>
        <mxCell id="-WUFhk_O9oC03OGAPnyk-32" style="edgeStyle=orthogonalEdgeStyle;rounded=0;orthogonalLoop=1;jettySize=auto;html=1;entryX=0.439;entryY=0.003;entryDx=0;entryDy=0;entryPerimeter=0;" edge="1" parent="1" source="P_sAf52qYaWuxVpr26zw-12" target="P_sAf52qYaWuxVpr26zw-6">
          <mxGeometry relative="1" as="geometry">
            <Array as="points">
              <mxPoint x="135" y="695" />
              <mxPoint x="313" y="695" />
            </Array>
          </mxGeometry>
        </mxCell>
        <mxCell id="-WUFhk_O9oC03OGAPnyk-33" value="Fail" style="edgeLabel;html=1;align=center;verticalAlign=middle;resizable=0;points=[];" vertex="1" connectable="0" parent="-WUFhk_O9oC03OGAPnyk-32">
          <mxGeometry x="-0.2205" y="1" relative="1" as="geometry">
            <mxPoint as="offset" />
          </mxGeometry>
        </mxCell>
        <mxCell id="-WUFhk_O9oC03OGAPnyk-38" style="edgeStyle=orthogonalEdgeStyle;rounded=0;orthogonalLoop=1;jettySize=auto;html=1;entryX=0.5;entryY=0;entryDx=0;entryDy=0;" edge="1" parent="1" source="-WUFhk_O9oC03OGAPnyk-34" target="-WUFhk_O9oC03OGAPnyk-37">
          <mxGeometry relative="1" as="geometry" />
        </mxCell>
        <mxCell id="-WUFhk_O9oC03OGAPnyk-34" value="Redirect to&amp;nbsp;&lt;div&gt;`login/oauth2/code/google` RestAPI&lt;/div&gt;" style="rounded=0;whiteSpace=wrap;html=1;" vertex="1" parent="1">
          <mxGeometry x="35" y="840" width="200" height="60" as="geometry" />
        </mxCell>
        <mxCell id="-WUFhk_O9oC03OGAPnyk-39" style="edgeStyle=orthogonalEdgeStyle;rounded=0;orthogonalLoop=1;jettySize=auto;html=1;entryX=1;entryY=0.25;entryDx=0;entryDy=0;" edge="1" parent="1" source="-WUFhk_O9oC03OGAPnyk-37" target="-WUFhk_O9oC03OGAPnyk-48">
          <mxGeometry relative="1" as="geometry">
            <Array as="points">
              <mxPoint x="800" y="960" />
              <mxPoint x="800" y="423" />
            </Array>
          </mxGeometry>
        </mxCell>
        <mxCell id="-WUFhk_O9oC03OGAPnyk-37" value="Create&amp;nbsp;&lt;div&gt;a new access token and a refresh token&lt;/div&gt;&lt;div&gt;and return&lt;/div&gt;" style="rounded=0;whiteSpace=wrap;html=1;" vertex="1" parent="1">
          <mxGeometry x="27.5" y="940" width="215" height="60" as="geometry" />
        </mxCell>
        <mxCell id="-WUFhk_O9oC03OGAPnyk-42" style="edgeStyle=orthogonalEdgeStyle;rounded=0;orthogonalLoop=1;jettySize=auto;html=1;entryX=0.027;entryY=0.056;entryDx=0;entryDy=0;entryPerimeter=0;strokeColor=#FF66FF;" edge="1" parent="1" source="P_sAf52qYaWuxVpr26zw-25" target="-WUFhk_O9oC03OGAPnyk-21">
          <mxGeometry relative="1" as="geometry">
            <Array as="points">
              <mxPoint x="191" y="630" />
              <mxPoint x="407" y="630" />
            </Array>
          </mxGeometry>
        </mxCell>
        <mxCell id="-WUFhk_O9oC03OGAPnyk-43" value="Invalid" style="edgeLabel;html=1;align=center;verticalAlign=middle;resizable=0;points=[];" vertex="1" connectable="0" parent="-WUFhk_O9oC03OGAPnyk-42">
          <mxGeometry x="-0.2071" y="2" relative="1" as="geometry">
            <mxPoint as="offset" />
          </mxGeometry>
        </mxCell>
        <mxCell id="-WUFhk_O9oC03OGAPnyk-47" value="" style="edgeStyle=orthogonalEdgeStyle;rounded=0;orthogonalLoop=1;jettySize=auto;html=1;" edge="1" parent="1" source="-WUFhk_O9oC03OGAPnyk-44" target="P_sAf52qYaWuxVpr26zw-107">
          <mxGeometry relative="1" as="geometry" />
        </mxCell>
        <mxCell id="-WUFhk_O9oC03OGAPnyk-44" value="Backend process for the API" style="rounded=0;whiteSpace=wrap;html=1;" vertex="1" parent="1">
          <mxGeometry x="-60" y="515" width="120" height="60" as="geometry" />
        </mxCell>
        <mxCell id="-WUFhk_O9oC03OGAPnyk-49" style="edgeStyle=orthogonalEdgeStyle;rounded=0;orthogonalLoop=1;jettySize=auto;html=1;entryX=1;entryY=0.5;entryDx=0;entryDy=0;" edge="1" parent="1" source="-WUFhk_O9oC03OGAPnyk-48" target="P_sAf52qYaWuxVpr26zw-10">
          <mxGeometry relative="1" as="geometry" />
        </mxCell>
        <mxCell id="-WUFhk_O9oC03OGAPnyk-48" value="Save / Update tokens on the Web Browser" style="rounded=0;whiteSpace=wrap;html=1;fillColor=#dae8fc;strokeColor=#6c8ebf;" vertex="1" parent="1">
          <mxGeometry x="495" y="408" width="120" height="60" as="geometry" />
        </mxCell>
      </root>
    </mxGraphModel>
  </diagram>
</mxfile>
